<svg xmlns="http://www.w3.org/2000/svg" xmlns:xlink="http://www.w3.org/1999/xlink" width="155" height="53" viewBox="0 0 155 53"><defs><path id="a" d="M308 3791h51.71v51.71H308z"/><path id="b" d="M324.23 3828.05h-2.38v-15.96l-4.85 1.76v-2.12l6.88-2.55h.35zm18.35-13.85a4.5 4.5 0 0 1-.7 2.47 4.72 4.72 0 0 1-2.03 1.68 5.36 5.36 0 0 1 2.29 1.85c.62.8.88 1.77.88 2.74 0 1.59-.53 2.91-1.67 3.88-1.06.97-2.56 1.41-4.33 1.41-1.85 0-3.26-.44-4.32-1.41a5.04 5.04 0 0 1-1.59-3.88c0-1.06.27-1.94.8-2.74a5.36 5.36 0 0 1 2.29-1.85 5.15 5.15 0 0 1-1.94-1.68 5.12 5.12 0 0 1 .79-6.26 5.71 5.71 0 0 1 4.06-1.41c1.68 0 3 .44 3.97 1.41 1.06.88 1.5 2.21 1.5 3.79zm-1.94 8.74c0-1.06-.35-1.94-.97-2.56-.71-.71-1.5-.97-2.65-.97-1.14 0-1.94.35-2.55.97-.62.62-.97 1.5-.97 2.56s.35 1.94.97 2.56c.61.61 1.5.88 2.64.88 1.15 0 2.03-.27 2.65-.88.62-.62.88-1.5.88-2.56zm-3.53-12a3.01 3.01 0 0 0-3.17 3.26c0 .97.26 1.77.88 2.3.62.62 1.32.88 2.29.88a3 3 0 0 0 3.18-3.18c0-.97-.27-1.76-.88-2.38a3.55 3.55 0 0 0-2.3-.88z"/><path id="c" d="M348.15 3806.91h2.82v1.24h-2.82v3.17h-1.33v-3.17H344v-1.24h2.82V3804h1.33z"/><clipPath id="d"><use fill="#fff" xlink:href="#a"/></clipPath></defs><desc>Generated with Avocode.</desc><g font-size="10" font-family="Helvetica,Arial,sans-serif" stroke="#000"><text dominant-baseline="text-before-edge" x="369.592" y="3793.71" transform="translate(-308 -3791)">Минздрав России</text><text dominant-baseline="text-before-edge" x="369.592" y="3805.539" transform="translate(-308 -3791)">предупреждает:</text><text dominant-baseline="text-before-edge" x="369.553" y="3817.776" transform="translate(-308 -3791)">курение вредит</text><text dominant-baseline="text-before-edge" x="369.184" y="3830.421" transform="translate(-308 -3791)">Вашему здоровью</text></g><use xlink:href="#b" transform="translate(-308 -3791)"/><use xlink:href="#c" transform="translate(-308 -3791)"/><use fill="#fff" fill-opacity="0" stroke="#000" stroke-miterlimit="50" stroke-width="4" clip-path="url(&quot;#d&quot;)" xlink:href="#a" transform="translate(-308 -3791)"/></svg>