<svg xmlns="http://www.w3.org/2000/svg" width="132" height="16" viewBox="0 0 132 16"><path fill="#fff" d="M26.28 6h-.43l.06 3c.26.01.46.04.6.07.26.07.43.27.46.59-.11.4-.32.63-.61.68a9.3 9.3 0 0 1-1.33.06h-6.74L18 13.41h7.07c1.5-.01 2.57-.32 3.2-.88a4.22 4.22 0 0 0 1.25-2.64c.12-1.19-.08-2.11-.59-2.78-.49-.68-1.39-1.05-2.65-1.11zm45.3 3.29h.47V6.31c-.25-.02-.43-.03-.59-.06-.25-.05-.4-.27-.45-.64.19-.3.39-.47.62-.51.23-.04.57-.06 1.02-.06h6.49L79.43 2h-6.92c-1.44.06-2.49.37-3.15.93a4.31 4.31 0 0 0-1.33 2.65c-.12 1.16.11 2.09.67 2.74.57.65 1.53.97 2.88.97z"/><path fill="#fff" d="M73 7.51c0 1.01.37 1.5 1.13 1.47.69 0 1.03-.49 1.03-1.5 0-1-.35-1.5-1.08-1.48-.72.02-1.08.53-1.08 1.51zM22.58 9.29h.5V6.31c-.26-.02-.46-.03-.62-.06-.25-.05-.4-.27-.45-.64.19-.3.39-.47.62-.51.23-.04.57-.06 1.02-.06h6.49L30.43 2h-6.92c-1.44.06-2.49.37-3.15.93a4.31 4.31 0 0 0-1.33 2.65c-.12 1.16.11 2.09.67 2.74.57.65 1.53.97 2.88.97z"/><path fill="#fff" d="M23 7.51c0 1.01.37 1.5 1.13 1.47.69 0 1.03-.49 1.03-1.5 0-1-.35-1.5-1.08-1.48-.72.02-1.08.53-1.08 1.51zm19.73-1.12L42 13.74h3.52l.46-4.6 8.34.01.28-2.83-8.38.02.06-.62c.26-.58.71-.88 1.31-.85h7.17l.27-2.85L46.97 2c-2.56.12-3.98 1.59-4.24 4.39zm81.38-1.53l7.1-.02.28-2.84h-8.03c-2.57.12-4.03 2.07-4.39 5.84-.35 3.77.63 5.71 3 5.85h8.24l.31-3.04-7.5.01c-.39-.04-.59-.34-.61-.89l-.01-.67 8.28.04.29-2.82-8.34-.01.28-1c.14-.33.49-.47 1.1-.45zm-9.01 2.45L119.48 2h-4.62l-3.49 3.85a2.84 2.84 0 0 0-.92 1.8l.55-5.63h-3.83L106 13.75h3.83l.59-5.83c-.06.67.11 1.28.52 1.83l2.75 4h4.67l-3.34-5.16c-.31-.44-.28-.86.08-1.28z"/><path fill="#fff" d="M103.16 2.02L98.6 2c-2.63.02-4.12 2.05-4.51 6.08-.42 3.99.62 5.98 3.09 5.97h5.56c2.41-.05 3.69-2.12 3.87-6.2.44-3.95-.72-5.9-3.45-5.83zm.18 5.86c-.11 1.22-.29 1.98-.57 2.29-.22.45-.62.69-1.17.76l-3.28.01c-.52-.09-.86-.41-1.03-.96-.11-.21-.1-.86.01-1.91.13-1.07.28-1.75.48-2.04.31-.65.82-1 1.56-1.06h2.53c.56.04.96.24 1.22.6.27.32.36 1.09.25 2.31zm-24.39-.77c-.51-.66-1.41-1.03-2.67-1.11h-.48v3c.31.01.54.04.71.07.26.07.43.27.46.59-.11.4-.32.63-.61.68a9.3 9.3 0 0 1-1.33.06h-6.74L68 13.41h7.07c1.5-.01 2.57-.32 3.2-.88a4.22 4.22 0 0 0 1.25-2.64c.12-1.19-.06-2.11-.57-2.78zM59.08 9.27l.41-3.96 6 .01.32-3.32H55.32L55 5.31l.96-.02-.42 4.06c-.31 2.8.82 4.26 3.37 4.39h8.06l.31-3.29-7.12-.02c-.73-.06-1.08-.45-1.08-1.16z"/><path fill="#fff" d="M90.69 2.02L80.19 2 79 13.77h3.23l.83-8.43 2.53.01-.83 8.42 2.97-.02.85-8.37 1.57-.01c.68-.02.93.4.76 1.28l-.7 7.1h2.97l.8-8.03c.12-2.53-.97-3.77-3.29-3.7zm-51.53 0L34.6 2c-2.63.02-4.12 2.05-4.51 6.08-.42 3.99.62 5.98 3.09 5.97h5.56c2.41-.05 3.69-2.12 3.87-6.2.44-3.95-.71-5.9-3.45-5.83zm.18 5.86c-.11 1.22-.29 1.98-.57 2.29-.22.45-.62.69-1.17.76l-3.28.01c-.52-.09-.86-.41-1.03-.96-.11-.21-.1-.86.01-1.91.13-1.07.28-1.75.48-2.04.31-.65.82-1 1.56-1.06h2.53c.56.04.96.24 1.22.6.28.32.36 1.09.25 2.31zM13.45 0H1.84C.83 0 0 .82 0 1.84v11.6c0 1.02.82 1.83 1.84 1.83h11.61c1.02 0 1.84-.81 1.84-1.83V1.84A1.85 1.85 0 0 0 13.45 0zm.67 1.99v11.28c0 .46-.37.83-.84.83H2.01a.83.83 0 0 1-.84-.83V1.99c0-.46.37-.83.84-.83h11.27c.47 0 .84.37.84.83z"/><path fill="#fff" d="M4.1 7.58c.71.51 1.43.77 2.16.77h.18V6.11h-.1c-.53 0-.87-.14-.99-.42a1.13 1.13 0 0 1-.09-.49c0-.25.03-.42.1-.53.08-.1.24-.18.45-.26.29-.09.74-.15 1.36-.2h5.27c.29 0 .52-.08.68-.23.18-.19.29-.48.29-.88 0-.39-.09-.68-.29-.87-.17-.17-.44-.24-.76-.23l-5.17.02c-1.8 0-3.03.48-3.7 1.42A3.09 3.09 0 0 0 3 5.2a2.75 2.75 0 0 0 1.1 2.38z"/><path fill="#fff" d="M7 8.14c0 .36.09.64.29.82.19.19.48.28.85.28h.05c.73 0 1.11-.39 1.11-1.13 0-.37-.09-.65-.29-.83-.2-.19-.5-.29-.87-.28C7.39 7.02 7 7.4 7 8.14z"/><path fill="#fff" d="M12.33 7.77A3.74 3.74 0 0 0 10.1 7H10v2.24h.1c.53 0 .87.14.99.42.06.12.1.29.1.49a1 1 0 0 1-.11.53c-.08.1-.23.18-.45.26-.29.09-.76.14-1.39.12H3.99c-.45 0-.99.22-.99 1.15 0 .38.09.67.29.86a1 1 0 0 0 .74.26h5.19c1.83 0 3.08-.48 3.74-1.42.33-.48.5-1.06.5-1.76a2.85 2.85 0 0 0-1.13-2.38z"/></svg>