<svg width="171" height="20" viewBox="0 0 171 20" xmlns="http://www.w3.org/2000/svg"><title>softsmoke_logo</title><g fill-rule="nonzero" fill="#111"><path d="M34.192 8.002h-.561l.08 3.89c.34.02.601.06.782.1.34.081.561.342.602.763-.14.521-.421.822-.803.882-.4.06-.962.08-1.724.08h-8.744l-.38 3.91h9.184c1.945-.02 3.329-.42 4.151-1.142.842-.742 1.384-1.885 1.624-3.43.161-1.544-.1-2.747-.761-3.61-.642-.881-1.805-1.363-3.45-1.443zM92.95 11.852h.602v-3.87a5.94 5.94 0 0 1-.762-.081c-.32-.06-.521-.341-.582-.822.241-.401.502-.622.803-.662.3-.06.742-.08 1.323-.08h8.423l.381-3.951h-8.984c-1.865.08-3.229.481-4.091 1.203-.863.722-1.444 1.865-1.725 3.45-.16 1.504.14 2.707.862 3.55.742.841 1.986 1.263 3.75 1.263z"/><path d="M94.354 10.007c0 1.303.482 1.945 1.464 1.905.903 0 1.344-.642 1.344-1.945 0-1.304-.461-1.946-1.404-1.926-.942.02-1.404.682-1.404 1.966zM28.758 11.852h.641v-3.87c-.34-.021-.601-.041-.802-.081-.32-.06-.521-.341-.581-.822.24-.401.5-.622.802-.662.3-.06.742-.08 1.323-.08h8.423l.381-3.951h-8.984c-1.865.08-3.229.481-4.091 1.203-.863.722-1.444 1.865-1.725 3.45-.16 1.504.14 2.707.862 3.55.742.841 1.986 1.263 3.75 1.263z"/><path d="M29.94 10.007c0 1.303.482 1.945 1.465 1.905.902 0 1.343-.642 1.343-1.945 0-1.304-.461-1.946-1.404-1.926-.942.02-1.403.682-1.403 1.966zM55.59 8.041l-.943 9.546h4.573l.601-5.976 10.83.02.36-3.67-10.889.02.08-.802c.341-.762.923-1.143 1.705-1.103h9.305l.36-3.71-10.467-.02c-3.33.16-5.174 2.066-5.515 5.695zM161.154 6.076l9.225-.02.36-3.69h-10.427c-3.33.16-5.234 2.687-5.696 7.58-.46 4.894.823 7.42 3.89 7.6h10.71l.4-3.95-9.745.02c-.502-.06-.763-.44-.783-1.163l-.02-.862 10.75.04.38-3.65-10.829-.02.361-1.303c.18-.422.642-.602 1.424-.582zM149.603 9.165l5.695-6.899h-5.996l-4.532 4.993c-.682.622-1.083 1.404-1.203 2.347l.722-7.32h-4.974l-1.524 15.241h4.973l.762-7.58c-.08.882.14 1.664.682 2.386l3.57 5.194h6.056l-4.331-6.698c-.401-.581-.361-1.123.1-1.664zM133.64 2.146l-5.916-.02c-3.409.02-5.354 2.667-5.855 7.901-.542 5.174.802 7.761 4.01 7.741h7.22c3.128-.06 4.793-2.747 5.034-8.042.561-5.133-.943-7.66-4.493-7.58zm.241 7.62c-.14 1.585-.38 2.567-.742 2.969-.28.581-.802.902-1.524.982l-4.251.02c-.682-.12-1.124-.541-1.344-1.243-.14-.28-.12-1.123.02-2.487.16-1.383.36-2.266.622-2.647.4-.842 1.062-1.303 2.025-1.384h3.289c.722.06 1.243.321 1.584.782.341.422.462 1.424.321 3.009zM101.855 9.426c-.662-.862-1.825-1.344-3.47-1.444h-.622v3.89c.402.02.702.06.923.1.34.081.561.342.602.763-.14.521-.421.822-.803.882-.4.06-.962.08-1.724.08h-8.744l-.38 3.911h9.184c1.945-.02 3.329-.421 4.151-1.143.842-.742 1.384-1.885 1.625-3.43.16-1.544-.08-2.747-.743-3.61zM76.907 11.771l.542-5.153 7.78.02.422-4.312H72.034l-.421 4.292 1.243-.02-.541 5.274c-.401 3.63 1.063 5.535 4.372 5.695h10.468l.401-4.271-9.245-.02c-.942-.08-1.404-.582-1.404-1.505zM117.477 2.366l-13.637-.02-1.544 15.281h4.191l1.083-10.95 3.289.02-1.083 10.93 3.85-.02 1.103-10.87 2.046-.02c.882-.02 1.203.522.982 1.665l-.902 9.225h3.85l1.043-10.428c.16-3.289-1.263-4.893-4.271-4.813zM50.376 2.146l-5.916-.02c-3.41.02-5.355 2.667-5.856 7.901-.541 5.174.802 7.761 4.01 7.741h7.22c3.129-.06 4.793-2.747 5.034-8.042.561-5.133-.923-7.66-4.492-7.58zm.24 7.62c-.14 1.585-.38 2.567-.742 2.969-.28.581-.802.902-1.524.982l-4.251.02c-.682-.12-1.123-.541-1.344-1.243-.14-.28-.12-1.123.02-2.487.16-1.383.361-2.266.622-2.647.401-.842 1.063-1.303 2.025-1.384h3.29c.721.06 1.243.321 1.584.782.36.422.46 1.424.32 3.009zM17.467 0H2.387A2.392 2.392 0 0 0 0 2.386v15.061a2.38 2.38 0 0 0 2.386 2.387h15.081a2.38 2.38 0 0 0 2.387-2.387V2.387C19.834 1.062 18.77 0 17.466 0zm.862 2.587v14.64c0 .601-.48 1.082-1.082 1.082H2.607a1.078 1.078 0 0 1-1.083-1.083V2.587c0-.602.481-1.083 1.083-1.083h14.64c.601 0 1.082.481 1.082 1.083z"/><path d="M4.592 10.388c.923.662 1.865 1.003 2.808 1.003H7.64V8.483H7.5c-.682 0-1.123-.18-1.283-.542-.08-.16-.12-.38-.12-.641 0-.321.04-.542.14-.682s.3-.24.581-.341c.381-.12.963-.2 1.765-.26h6.839c.38 0 .681-.101.882-.302.24-.24.38-.621.38-1.143 0-.501-.12-.882-.38-1.123-.22-.22-.562-.32-.983-.3l-6.718.02c-2.326 0-3.93.621-4.793 1.845-.42.621-.641 1.383-.641 2.286-.02 1.343.46 2.386 1.423 3.088z"/><path d="M8.403 9.947c0 .461.12.822.38 1.063.241.24.622.36 1.104.36h.06c.942 0 1.444-.5 1.444-1.463 0-.482-.12-.842-.381-1.083-.261-.24-.642-.381-1.123-.361-.983.02-1.484.521-1.484 1.484z"/><path d="M15.261 9.466c-.942-.682-1.925-1.023-2.888-1.003h-.14v2.908h.14c.682 0 1.123.18 1.284.541.08.16.12.381.12.642 0 .32-.04.541-.14.682-.1.14-.301.24-.582.34-.38.12-.982.181-1.805.161H4.432c-.582 0-1.284.28-1.284 1.484 0 .501.12.882.382 1.123.22.22.541.341.962.341h6.738c2.367 0 3.991-.622 4.853-1.845.421-.622.642-1.384.642-2.286-.02-1.344-.501-2.387-1.464-3.088z"/></g></svg>